<svg width="11" height="10" viewBox="0 0 11 10" fill="none" xmlns="http://www.w3.org/2000/svg">
<path d="M5.98811 4.99997L9.8703 1.10605C10.123 0.85277 10.123 0.443246 9.8703 0.189963C9.61778 -0.0633208 9.20947 -0.0633208 8.95694 0.189963L5.07464 4.08388L1.19244 0.189963C0.939797 -0.0633208 0.531613 -0.0633208 0.279084 0.189963C0.026438 0.443246 0.026438 0.85277 0.279084 1.10605L4.16128 4.99997L0.279084 8.89389C0.026438 9.14718 0.026438 9.5567 0.279084 9.80999C0.404934 9.93633 0.570408 9.9998 0.735764 9.9998C0.90112 9.9998 1.06648 9.93633 1.19244 9.80999L5.07464 5.91606L8.95694 9.80999C9.08291 9.93633 9.24827 9.9998 9.41362 9.9998C9.57898 9.9998 9.74434 9.93633 9.8703 9.80999C10.123 9.5567 10.123 9.14718 9.8703 8.89389L5.98811 4.99997Z" fill="white"/>
</svg>
